<?xml version="1.0" encoding="utf-8"?>
<!-- Generator: Adobe Illustrator 17.0.0, SVG Export Plug-In . SVG Version: 6.00 Build 0)  -->
<!DOCTYPE svg PUBLIC "-//W3C//DTD SVG 1.1//EN" "http://www.w3.org/Graphics/SVG/1.1/DTD/svg11.dtd">
<svg version="1.1" id="Camada_1" xmlns="http://www.w3.org/2000/svg" xmlns:xlink="http://www.w3.org/1999/xlink" x="0px" y="0px"
	 width="500px" height="500px" viewBox="0 0 500 500" enable-background="new 0 0 500 500" xml:space="preserve">
<g>
	<g>
		<g id="mexendo">
			<path fill="#FFFFFF" d="M147.899,218.88c3.919-23.72,13.277-40.573,28.835-53.657c0.094-0.079,6.026-4.877,6.392-5.134
				c0.01-0.03,1.999-1.467,2.931-2.214c12.614-10.105,18.984-26.914,14.93-43.662c-5.587-23.082-28.829-37.265-51.911-31.678
				c-10.105,2.446-18.504,8.276-24.286,15.994c-6.748,8.065-10.351,19.61-9.715,34.06
				C116.412,163.003,127.199,190.869,147.899,218.88z"/>
		</g>
		<g id="mexendo_1_">
			<path fill="#FFFFFF" d="M143.094,228.966c-22.501,8.465-41.775,8.788-60.886,1.857c-0.116-0.042-7.237-2.78-7.642-2.968
				c-0.031,0.006-2.27-0.997-3.382-1.431c-15.058-5.872-32.801-2.984-45.278,8.901c-17.196,16.38-17.858,43.599-1.478,60.796
				c7.171,7.528,16.419,11.887,25.994,13.035c10.359,1.812,22.158-0.841,34.354-8.616
				C110.447,284.173,129.186,260.898,143.094,228.966z"/>
		</g>
		<g id="mexendo_5_">
			<path fill="#FFFFFF" d="M155.373,223.847c18.582,15.254,28.498,31.785,32.051,51.801c0.021,0.121,1.211,7.657,1.251,8.103
				c0.021,0.024,0.271,2.465,0.452,3.645c2.444,15.977,13.816,29.898,30.348,34.761c22.784,6.702,46.687-6.334,53.389-29.118
				c2.934-9.974,2.085-20.163-1.708-29.029c-3.611-9.877-11.807-18.769-24.639-25.443
				C219.507,224.517,189.981,219.926,155.373,223.847z"/>
		</g>
	</g>
	<g>
		<g>
			<path fill="#FFFFFF" d="M307.513,432.46c-7.668,0-15.387-0.513-23.118-1.55l2.811-20.952
				c39.733,5.33,79.162-5.133,111.026-29.459c31.864-24.326,52.348-59.606,57.677-99.339c5.164-38.492-4.588-76.969-27.456-108.342
				l17.083-12.452c26.091,35.794,37.215,79.691,31.325,123.605c-6.08,45.33-29.45,85.577-65.801,113.331
				C380.908,420.321,344.815,432.459,307.513,432.46z"/>
		</g>
		<g>
			<path fill="#FFFFFF" d="M285.188,430.87c0,0-0.967-0.197-2.78-0.565c-0.906-0.184-2.024-0.411-3.339-0.678
				c-0.66-0.136-1.37-0.282-2.128-0.438c-0.817-0.204-1.686-0.42-2.604-0.649c-1.828-0.464-3.851-0.977-6.054-1.535
				c-2.109-0.65-4.391-1.353-6.828-2.105c-2.434-0.747-4.957-1.762-7.644-2.714c-1.348-0.464-2.696-1.038-4.074-1.626
				c-1.378-0.583-2.788-1.179-4.227-1.787c-1.452-0.575-2.86-1.339-4.332-2.023c-1.459-0.708-2.946-1.43-4.459-2.165
				c-1.476-0.804-2.976-1.622-4.5-2.452c-0.76-0.415-1.526-0.834-2.297-1.255c-0.768-0.426-1.512-0.91-2.277-1.368
				c-1.519-0.929-3.058-1.871-4.617-2.824c-1.539-0.982-3.048-2.054-4.595-3.094c-0.77-0.525-1.545-1.053-2.323-1.584
				c-0.774-0.536-1.516-1.129-2.28-1.695c-1.515-1.146-3.045-2.303-4.588-3.469c-6.011-4.871-11.932-10.217-17.5-16.063
				c-5.51-5.903-10.697-12.238-15.421-18.879c-4.637-6.709-8.797-13.705-12.424-20.808c-3.558-7.144-6.51-14.407-8.982-21.542
				c-0.557-1.804-1.109-3.592-1.656-5.364c-0.265-0.887-0.561-1.759-0.795-2.646c-0.227-0.888-0.453-1.772-0.678-2.651
				c-0.438-1.76-0.917-3.485-1.303-5.211c-0.353-1.733-0.702-3.444-1.046-5.133c-0.164-0.845-0.36-1.676-0.493-2.515
				c-0.128-0.839-0.256-1.672-0.382-2.498c-0.252-1.65-0.5-3.275-0.744-4.873c-0.167-1.607-0.332-3.187-0.494-4.737
				c-0.135-1.552-0.367-3.061-0.408-4.56c-0.078-1.493-0.154-2.954-0.228-4.383c-0.08-1.427-0.159-2.818-0.134-4.181
				c0.023-2.722-0.073-5.296,0.05-7.715c0.117-2.414,0.227-4.674,0.329-6.763c0.205-2.079,0.393-3.989,0.563-5.714
				c0.086-0.861,0.167-1.675,0.243-2.442c0.113-0.763,0.218-1.477,0.317-2.142c0.201-1.328,0.371-2.457,0.509-3.373
				c0.276-1.829,0.424-2.804,0.424-2.804s-0.065,0.985-0.188,2.831c-0.061,0.922-0.136,2.059-0.225,3.395
				c-0.042,0.667-0.088,1.385-0.136,2.15c-0.012,0.767-0.025,1.583-0.038,2.445c-0.025,1.72-0.053,3.624-0.083,5.697
				c0.073,2.069,0.151,4.308,0.235,6.699c0.077,2.387,0.387,4.919,0.587,7.584c0.087,1.334,0.28,2.694,0.475,4.085
				c0.19,1.389,0.384,2.811,0.582,4.263c0.161,1.454,0.515,2.915,0.772,4.414c0.283,1.494,0.572,3.016,0.865,4.563
				c0.367,1.531,0.741,3.089,1.12,4.67c0.189,0.789,0.38,1.584,0.572,2.385c0.197,0.799,0.456,1.59,0.682,2.394
				c0.469,1.601,0.944,3.224,1.424,4.867c0.511,1.632,1.116,3.258,1.677,4.913c0.286,0.825,0.574,1.655,0.863,2.489
				c0.295,0.831,0.652,1.646,0.977,2.476c0.665,1.651,1.337,3.318,2.014,4.999c2.941,6.626,6.326,13.29,10.252,19.757
				c3.995,6.426,8.457,12.666,13.306,18.563c4.937,5.831,10.246,11.301,15.777,16.316c5.59,4.96,11.432,9.397,17.27,13.374
				c1.493,0.942,2.974,1.877,4.441,2.802c0.737,0.455,1.45,0.938,2.194,1.365c0.747,0.421,1.49,0.84,2.229,1.257
				c1.483,0.823,2.921,1.68,4.385,2.449c1.478,0.741,2.938,1.473,4.379,2.194c0.723,0.354,1.424,0.736,2.148,1.06
				c0.726,0.32,1.447,0.637,2.162,0.952c1.427,0.63,2.832,1.251,4.214,1.861c1.409,0.542,2.795,1.074,4.155,1.597
				c1.368,0.499,2.67,1.082,4.014,1.481c1.328,0.434,2.628,0.858,3.899,1.273c1.267,0.421,2.503,0.833,3.739,1.14
				c2.463,0.638,4.759,1.36,6.973,1.835c2.207,0.483,4.273,0.935,6.182,1.353c1.864,0.309,3.577,0.593,5.123,0.849
				c0.77,0.13,1.498,0.252,2.184,0.368c0.759,0.091,1.47,0.177,2.133,0.256c1.332,0.156,2.465,0.289,3.384,0.397
				c1.837,0.216,2.817,0.33,2.817,0.33L285.188,430.87z"/>
		</g>
	</g>
	<g>
		<path fill="#FFFFFF" d="M439.889,172.089c0,0-0.599-0.836-1.721-2.402c-0.561-0.783-1.253-1.749-2.067-2.885
			c-0.802-1.149-1.828-2.351-2.919-3.763c-0.552-0.699-1.133-1.436-1.743-2.209c-0.555-0.733-1.318-1.521-2.012-2.331
			c-1.435-1.625-2.988-3.382-4.646-5.26c-3.5-3.533-7.356-7.59-12.077-11.526c-1.165-0.996-2.307-2.071-3.557-3.06
			c-1.266-0.97-2.557-1.958-3.869-2.963c-1.318-0.998-2.635-2.045-4.014-3.05c-1.421-0.947-2.863-1.909-4.325-2.884
			c-1.471-0.961-2.925-1.995-4.464-2.933c-1.563-0.9-3.146-1.81-4.746-2.731c-0.8-0.46-1.604-0.923-2.413-1.389
			c-0.804-0.474-1.619-0.937-2.476-1.331c-1.692-0.829-3.4-1.667-5.122-2.511c-3.397-1.798-7.079-3.115-10.716-4.655
			c-0.909-0.361-1.841-0.782-2.739-1.097c-0.946-0.316-1.895-0.633-2.846-0.95c-1.902-0.635-3.814-1.274-5.733-1.914l-1.442-0.477
			l-1.464-0.381l-2.936-0.764c-1.961-0.51-3.928-1.021-5.899-1.534c-2.005-0.38-4.013-0.761-6.023-1.142
			c-2.016-0.347-4.011-0.849-6.054-1.03l-6.1-0.738c-1.017-0.109-2.029-0.277-3.05-0.337l-3.06-0.165
			c-2.039-0.11-4.073-0.22-6.102-0.329c-2.03-0.073-4.056,0.022-6.074,0.025c-1.009,0.012-2.016,0.024-3.021,0.037
			c-1.005,0.017-2.009-0.001-3.004,0.105c-1.994,0.155-3.979,0.31-5.951,0.463c-0.986,0.077-1.97,0.153-2.95,0.229
			c-0.977,0.102-1.944,0.269-2.911,0.399c-1.933,0.278-3.853,0.553-5.756,0.827c-1.914,0.217-3.764,0.698-5.617,1.065
			c-1.849,0.389-3.681,0.774-5.493,1.155c-3.586,0.917-7.064,1.939-10.465,2.875c-3.33,1.165-6.57,2.298-9.703,3.394
			c-3.06,1.291-6.016,2.538-8.853,3.735c-2.775,1.333-5.403,2.682-7.92,3.927c-1.273,0.596-2.451,1.293-3.597,1.968
			c-1.15,0.669-2.267,1.318-3.349,1.947c-1.082,0.629-2.13,1.239-3.141,1.827c-0.988,0.625-1.912,1.272-2.816,1.87
			c-1.8,1.207-3.454,2.316-4.947,3.317c-0.76,0.483-1.432,1.005-2.064,1.497c-0.635,0.488-1.23,0.945-1.784,1.37
			c-1.108,0.851-2.05,1.575-2.815,2.162c-1.529,1.174-2.344,1.8-2.344,1.8s0.81-0.633,2.329-1.819
			c0.76-0.593,1.696-1.325,2.798-2.185c0.551-0.43,1.143-0.892,1.774-1.385c0.628-0.497,1.297-1.025,2.053-1.514
			c1.486-1.014,3.132-2.137,4.923-3.359c0.9-0.605,1.82-1.261,2.804-1.894c1.007-0.597,2.051-1.215,3.13-1.854
			c1.079-0.639,2.192-1.298,3.338-1.977c1.143-0.685,2.317-1.392,3.587-2c2.511-1.267,5.132-2.64,7.903-3.998
			c2.835-1.223,5.787-2.496,8.844-3.815c3.133-1.124,6.373-2.287,9.703-3.482c3.403-0.966,6.885-2.02,10.477-2.969
			c1.815-0.397,3.651-0.798,5.503-1.203c1.857-0.383,3.712-0.881,5.632-1.114c1.91-0.29,3.835-0.582,5.774-0.877
			c0.971-0.139,1.941-0.314,2.922-0.424c0.984-0.085,1.971-0.169,2.962-0.254c1.981-0.17,3.974-0.341,5.978-0.513
			c1-0.115,2.009-0.105,3.019-0.13c1.01-0.02,2.022-0.041,3.036-0.061c2.028-0.019,4.067-0.131,6.108-0.074
			c2.041,0.094,4.089,0.188,6.14,0.282l3.081,0.142c1.027,0.052,2.047,0.213,3.071,0.315l6.146,0.694
			c2.06,0.166,4.071,0.654,6.104,0.988c2.028,0.368,4.054,0.735,6.076,1.102c1.997,0.502,3.99,1.003,5.977,1.503l2.977,0.75
			l1.485,0.374l1.446,0.465c7.712,2.389,15.291,5.163,22.259,8.501c1.745,0.838,3.476,1.67,5.19,2.493
			c0.868,0.391,1.695,0.852,2.51,1.324c0.82,0.463,1.636,0.924,2.447,1.382c1.623,0.917,3.229,1.824,4.815,2.72
			c1.562,0.935,3.04,1.967,4.534,2.926c1.485,0.974,2.95,1.934,4.394,2.88c1.402,1.004,2.742,2.051,4.082,3.049
			c1.335,1.006,2.647,1.995,3.935,2.965c1.273,0.99,2.436,2.067,3.622,3.064c4.793,3.93,8.777,8.048,12.35,11.605
			c1.674,1.864,3.24,3.609,4.688,5.223c0.723,0.83,1.421,1.529,2.08,2.372c0.628,0.782,1.227,1.528,1.795,2.236
			c1.12,1.424,2.189,2.664,2.996,3.801c0.823,1.129,1.523,2.09,2.09,2.869c1.135,1.558,1.74,2.388,1.74,2.388L439.889,172.089z"/>
	</g>
	<g>
		<path fill="#FFFFFF" d="M298.651,314.022c0,0,0.819,0.187,2.355,0.539c0.384,0.086,0.813,0.182,1.285,0.288
			c0.471,0.074,0.986,0.154,1.542,0.241c0.556,0.087,1.154,0.181,1.791,0.281c0.642,0.078,1.331,0.12,2.056,0.187
			c2.897,0.289,6.455,0.287,10.485-0.178c4.02-0.492,8.554-1.403,13.18-3.365c0.587-0.227,1.194-0.432,1.781-0.684
			c0.569-0.282,1.143-0.568,1.723-0.855c0.58-0.288,1.166-0.578,1.757-0.871c0.592-0.29,1.195-0.573,1.753-0.956
			c1.142-0.716,2.303-1.444,3.483-2.184c1.133-0.805,2.226-1.706,3.367-2.573c4.417-3.643,8.495-8.216,11.721-13.581
			c3.231-5.354,5.6-11.489,6.743-17.968c1.155-6.475,1.066-13.278-0.3-19.831c-1.401-6.548-4.05-12.827-7.694-18.301
			c-3.642-5.492-8.281-10.177-13.406-13.798c-5.124-3.634-10.716-6.205-16.252-7.794c-5.545-1.624-11.051-2.023-16.066-1.903
			c-1.257,0.071-2.487,0.141-3.69,0.21c-1.19,0.187-2.352,0.37-3.486,0.549c-0.567,0.09-1.126,0.178-1.678,0.266
			c-0.545,0.121-1.074,0.277-1.601,0.411c-1.051,0.277-2.072,0.547-3.061,0.808c-0.5,0.114-0.972,0.277-1.435,0.46
			c-0.465,0.172-0.921,0.341-1.37,0.507c-0.895,0.337-1.768,0.64-2.589,0.971c-1.594,0.77-3.074,1.448-4.383,2.114
			c-1.263,0.751-2.392,1.422-3.373,2.006c-0.987,0.576-1.729,1.213-2.381,1.654c-1.276,0.924-1.957,1.416-1.957,1.416
			s0.678-0.496,1.95-1.426c0.65-0.444,1.39-1.085,2.374-1.666c0.979-0.589,2.105-1.266,3.366-2.024
			c1.307-0.672,2.786-1.359,4.38-2.139c0.82-0.336,1.69-0.642,2.584-0.984c0.448-0.168,0.904-0.339,1.368-0.513
			c0.459-0.183,0.938-0.352,1.438-0.469c0.99-0.266,2.011-0.541,3.063-0.825c0.527-0.137,1.057-0.296,1.603-0.42
			c0.553-0.09,1.113-0.182,1.68-0.275c1.135-0.184,2.3-0.373,3.492-0.567c1.206-0.075,2.439-0.151,3.699-0.229
			c5.029-0.145,10.559,0.228,16.138,1.832c5.57,1.569,11.205,4.126,16.379,7.757c5.175,3.619,9.872,8.314,13.571,13.833
			c3.711,5.521,6.408,11.829,7.854,18.43c1.412,6.611,1.537,13.49,0.401,20.048c-1.124,6.563-3.491,12.789-6.74,18.232
			c-3.243,5.454-7.357,10.115-11.826,13.837c-4.421,3.787-9.391,6.415-14.063,8.329c-4.665,2.005-9.294,2.965-13.38,3.484
			c-4.102,0.494-7.729,0.513-10.683,0.234c-0.74-0.065-1.441-0.105-2.099-0.182c-0.657-0.1-1.273-0.193-1.845-0.28
			c-0.573-0.087-1.103-0.168-1.589-0.242c-0.473-0.104-0.903-0.198-1.288-0.282c-1.538-0.344-2.358-0.527-2.358-0.527
			L298.651,314.022z"/>
	</g>
	<g>
		<path fill="#FFFFFF" d="M272.179,359.594c0,0,1.628,0.596,4.679,1.712c3.055,0.966,7.563,2.451,13.486,3.591
			c5.904,1.148,13.218,2.079,21.602,1.936c8.42-0.126,17.878-1.18,27.825-4.087c9.942-2.812,20.271-7.499,30.076-14.159
			c9.8-6.659,18.956-15.456,26.458-25.997c7.503-10.531,13.275-22.856,16.459-36.076c3.2-13.195,3.829-27.286,1.738-40.928
			c-2.076-13.667-6.948-26.888-14.033-38.511c-7.071-11.637-16.296-21.686-26.663-29.482c-10.36-7.826-21.812-13.399-33.199-16.821
			c-5.69-1.743-11.389-2.881-16.942-3.574c-1.388-0.187-2.764-0.366-4.139-0.445c-1.372-0.097-2.73-0.235-4.08-0.295
			c-2.704-0.074-5.348-0.18-7.95-0.075c-10.395,0.245-19.84,2.043-27.917,4.487c-8.091,2.444-14.805,5.578-20.121,8.483
			c-5.314,2.931-9.233,5.665-11.857,7.58c-1.31,0.961-2.272,1.755-2.941,2.263c-0.662,0.516-1.004,0.783-1.004,0.783
			s0.341-0.268,1.001-0.786c0.667-0.51,1.626-1.308,2.933-2.273c2.618-1.924,6.528-4.674,11.835-7.625
			c5.309-2.926,12.018-6.087,20.112-8.563c8.08-2.476,17.534-4.312,27.954-4.595c2.598-0.114,5.262-0.018,7.968,0.047
			c1.353,0.055,2.715,0.189,4.091,0.281c1.379,0.075,2.76,0.249,4.152,0.432c5.572,0.675,11.293,1.796,17.009,3.525
			c11.439,3.393,22.959,8.947,33.395,16.772c10.444,7.796,19.755,17.864,26.912,29.547c7.17,11.668,12.125,24.963,14.266,38.726
			c2.158,13.778,1.573,27.918-1.607,41.269c-3.164,13.35-8.946,25.817-16.489,36.483c-7.541,10.677-16.765,19.603-26.654,26.375
			c-9.895,6.773-20.333,11.556-30.393,14.44c-10.032,2.979-19.702,4.087-28.161,4.241c-8.53,0.176-15.926-0.742-21.928-1.885
			c-6.01-1.135-10.592-2.623-13.732-3.607c-3.058-1.107-4.689-1.697-4.689-1.697L272.179,359.594z"/>
	</g>
</g>
</svg>
