<?xml version="1.0" encoding="utf-8"?>
<!-- Generator: Adobe Illustrator 17.0.0, SVG Export Plug-In . SVG Version: 6.00 Build 0)  -->
<!DOCTYPE svg PUBLIC "-//W3C//DTD SVG 1.1//EN" "http://www.w3.org/Graphics/SVG/1.1/DTD/svg11.dtd">
<svg version="1.1" id="Camada_1" xmlns="http://www.w3.org/2000/svg" xmlns:xlink="http://www.w3.org/1999/xlink" x="0px" y="0px"
	 width="1087.912px" height="281.707px" viewBox="0 0 1087.912 281.707" enable-background="new 0 0 1087.912 281.707"
	 xml:space="preserve">
<line fill="#37BBCA" stroke="#37BBCA" stroke-width="8" stroke-miterlimit="10" x1="13.736" y1="7.244" x2="13.736" y2="274.244"/>
<linearGradient id="SVGID_1_" gradientUnits="userSpaceOnUse" x1="17.7363" y1="140.7439" x2="1081.7362" y2="140.7439">
	<stop  offset="0" style="stop-color:#37BBCA;stop-opacity:0.4"/>
	<stop  offset="0.0479" style="stop-color:#2D99A5;stop-opacity:0.3809"/>
	<stop  offset="0.1079" style="stop-color:#22757F;stop-opacity:0.3568"/>
	<stop  offset="0.1744" style="stop-color:#19555C;stop-opacity:0.3302"/>
	<stop  offset="0.2468" style="stop-color:#113B3F;stop-opacity:0.3013"/>
	<stop  offset="0.327" style="stop-color:#0B2528;stop-opacity:0.2692"/>
	<stop  offset="0.4186" style="stop-color:#061416;stop-opacity:0.2326"/>
	<stop  offset="0.528" style="stop-color:#030909;stop-opacity:0.1888"/>
	<stop  offset="0.6734" style="stop-color:#010202;stop-opacity:0.1306"/>
	<stop  offset="1" style="stop-color:#000000;stop-opacity:0"/>
</linearGradient>
<rect x="17.736" y="7.244" fill="url(#SVGID_1_)" width="1064" height="267"/>
<g>
	<path fill="#FFFFFF" d="M186.436,207.143V74.558h53.967c5.35,0,10.333,1.154,14.939,3.457c4.606,2.303,8.558,5.353,11.858,9.151
		s5.882,8.094,7.75,12.882c1.868,4.794,2.801,9.68,2.801,14.662c0,5.226-0.872,10.269-2.613,15.124
		c-1.747,4.855-4.202,9.151-7.377,12.882c-3.175,3.737-6.976,6.726-11.393,8.969c-4.421,2.236-9.306,3.36-14.659,3.36H190.17v52.098
		H186.436z M190.17,151.308h51.539c4.98,0,9.494-1.057,13.541-3.172c4.044-2.115,7.437-4.916,10.175-8.404
		c2.737-3.488,4.855-7.407,6.35-11.764c1.495-4.357,2.242-8.78,2.242-13.258c0-4.733-0.872-9.272-2.616-13.635
		c-1.744-4.357-4.141-8.215-7.188-11.575c-3.053-3.36-6.629-6.07-10.737-8.124c-4.111-2.054-8.467-3.081-13.073-3.081H190.17
		V151.308z"/>
	<path fill="#FFFFFF" d="M336.384,74.558h3.363l57.701,132.585h-4.108l-20.729-47.432h-69.279l-20.726,47.432h-4.111L336.384,74.558
		z M370.93,155.975l-32.867-76.002l-33.237,76.002H370.93z"/>
	<path fill="#FFFFFF" d="M419.483,207.143V74.558h53.967c5.35,0,10.333,1.154,14.939,3.457s8.558,5.353,11.858,9.151
		s5.882,8.094,7.75,12.882c1.868,4.794,2.801,9.68,2.801,14.662c0,5.104-0.811,10.02-2.427,14.747
		c-1.619,4.733-3.922,8.938-6.909,12.608c-2.99,3.67-6.568,6.66-10.737,8.963c-4.174,2.303-8.75,3.64-13.726,4.016l33.614,52.098
		h-4.484l-33.611-52.098h-49.3v52.098H419.483z M423.217,151.308h51.539c4.98,0,9.461-1.057,13.447-3.172
		c3.983-2.115,7.377-4.885,10.178-8.312c2.801-3.421,4.946-7.31,6.441-11.673c1.495-4.357,2.242-8.835,2.242-13.441
		c0-4.733-0.872-9.272-2.616-13.635c-1.744-4.357-4.141-8.215-7.188-11.575c-3.053-3.36-6.629-6.07-10.737-8.124
		c-4.111-2.054-8.467-3.081-13.073-3.081h-50.233V151.308z"/>
	<path fill="#FFFFFF" d="M630.306,192.949c-5.226,4.733-11.114,8.44-17.646,11.114c-6.538,2.68-13.538,4.016-21.012,4.016
		c-9.212,0-17.585-1.932-25.113-5.791c-7.535-3.858-14.036-8.902-19.517-15.124c-5.481-6.228-9.71-13.38-12.699-21.48
		c-2.983-8.088-4.478-16.363-4.478-24.834c0-8.835,1.586-17.299,4.764-25.393c3.172-8.094,7.529-15.252,13.07-21.48
		c5.536-6.222,12.074-11.168,19.608-14.844c7.529-3.67,15.653-5.505,24.366-5.505c9.09,0,17.433,1.957,25.028,5.882
		c7.589,3.919,14.097,9.054,19.511,15.403c5.414,6.35,9.619,13.538,12.608,21.571c2.983,8.027,4.478,16.151,4.478,24.366
		c0,9.71-1.805,18.83-5.414,27.355c-3.615,8.531-8.592,15.969-14.942,22.318l13.447,16.619h-4.667L630.306,192.949z
		 M591.649,204.342c7.219,0,13.884-1.306,19.985-3.919c6.095-2.619,11.575-6.101,16.43-10.457l-14.006-17.554h4.673l11.952,15.124
		c5.973-6.222,10.609-13.41,13.909-21.565s4.946-16.528,4.946-25.119c0-8.215-1.464-16.151-4.387-23.807
		c-2.923-7.656-7-14.443-12.232-20.356c-5.226-5.912-11.363-10.615-18.393-14.097c-7.036-3.488-14.656-5.232-22.877-5.232
		c-8.586,0-16.461,1.841-23.619,5.511c-7.164,3.67-13.295,8.495-18.393,14.468c-5.11,5.979-9.06,12.766-11.861,20.356
		c-2.801,7.595-4.199,15.312-4.199,23.157c0,8.215,1.458,16.151,4.387,23.807c2.923,7.656,6.939,14.443,12.043,20.356
		c5.104,5.918,11.205,10.615,18.302,14.103C575.407,202.598,583.184,204.342,591.649,204.342z"/>
	<path fill="#FFFFFF" d="M732.825,204.342c9.959,0,18.205-1.865,24.743-5.602c6.532-3.737,11.697-8.592,15.501-14.565
		c3.792-5.973,6.471-12.76,8.027-20.356c1.555-7.589,2.333-15.245,2.333-22.968V74.558h3.737v66.292
		c0,8.841-0.905,17.305-2.71,25.399c-1.805,8.094-4.825,15.215-9.054,21.376c-4.235,6.167-9.807,11.114-16.716,14.85
		c-6.909,3.731-15.47,5.602-25.678,5.602c-10.457,0-19.171-1.932-26.14-5.791c-6.976-3.858-12.541-8.963-16.716-15.312
		c-4.168-6.35-7.128-13.538-8.865-21.571c-1.744-8.027-2.619-16.212-2.619-24.554V74.558h3.737v66.292
		c0,7.966,0.778,15.75,2.333,23.345c1.555,7.595,4.266,14.377,8.124,20.35c3.858,5.979,9.023,10.773,15.501,14.383
		C714.833,202.537,722.988,204.342,732.825,204.342z"/>
	<path fill="#FFFFFF" d="M908.923,203.406v3.737h-87.025V74.558h85.342v3.737h-81.605v59.195h71.524v3.737h-71.524v62.179H908.923z"
		/>
	<path fill="#FFFFFF" d="M976.139,207.143c0-2.242,0.249-5.475,0.747-9.71c0.498-4.229,1.805-8.744,3.925-13.538
		c2.115-4.794,5.323-9.522,9.613-14.194c4.296-4.667,10.178-8.555,17.652-11.673c3.482-1.489,7.249-3.044,11.296-4.667
		c4.041-1.616,7.845-3.609,11.393-5.973c3.542-2.364,6.502-5.262,8.865-8.683c2.364-3.427,3.549-7.565,3.549-12.42
		c0-2.862-0.626-5.724-1.865-8.592c-1.246-2.862-3.111-5.414-5.602-7.656c-2.491-2.242-5.633-4.077-9.43-5.505
		c-3.798-1.434-8.252-2.151-13.35-2.151c-4.733,0-8.963,0.747-12.699,2.242c-3.737,1.495-6.945,3.172-9.619,5.043
		c-2.68,1.865-4.825,3.67-6.441,5.414c-1.622,1.744-2.68,2.929-3.178,3.549l-2.983-2.242c3.233-3.731,6.35-6.72,9.333-8.963
		c2.99-2.242,6.629-4.266,10.925-6.07c4.296-1.805,9.181-2.704,14.662-2.704c5.602,0,10.518,0.808,14.747,2.424
		c4.235,1.622,7.784,3.737,10.646,6.35s5.013,5.572,6.441,8.871c1.434,3.299,2.151,6.629,2.151,9.989
		c0,5.602-1.276,10.336-3.828,14.194s-5.76,7.091-9.619,9.71c-3.858,2.613-7.966,4.794-12.323,6.532
		c-4.363,1.744-8.282,3.36-11.764,4.855c-6.477,2.868-11.642,6.319-15.501,10.366c-3.858,4.047-6.848,8.124-8.963,12.232
		c-2.121,4.108-3.518,7.936-4.205,11.484c-0.681,3.549-1.027,6.131-1.027,7.747h69.282v3.737H976.139z"/>
</g>
</svg>
