<?xml version="1.0" encoding="utf-8"?>
<!-- Generator: Adobe Illustrator 17.0.0, SVG Export Plug-In . SVG Version: 6.00 Build 0)  -->
<!DOCTYPE svg PUBLIC "-//W3C//DTD SVG 1.1//EN" "http://www.w3.org/Graphics/SVG/1.1/DTD/svg11.dtd">
<svg version="1.1" id="Camada_1" xmlns="http://www.w3.org/2000/svg" xmlns:xlink="http://www.w3.org/1999/xlink" x="0px" y="0px"
	 width="1087.912px" height="281.707px" viewBox="0 0 1087.912 281.707" enable-background="new 0 0 1087.912 281.707"
	 xml:space="preserve">
<line fill="#FF7B17" stroke="#FF7B17" stroke-width="8" stroke-miterlimit="10" x1="13.736" y1="7.244" x2="13.736" y2="274.244"/>
<linearGradient id="SVGID_1_" gradientUnits="userSpaceOnUse" x1="17.7363" y1="140.7439" x2="1082.7362" y2="140.7439">
	<stop  offset="0" style="stop-color:#FF7B17;stop-opacity:0.4"/>
	<stop  offset="0.0459" style="stop-color:#D26613;stop-opacity:0.3816"/>
	<stop  offset="0.0988" style="stop-color:#A7500F;stop-opacity:0.3605"/>
	<stop  offset="0.1572" style="stop-color:#7F3D0B;stop-opacity:0.3371"/>
	<stop  offset="0.2201" style="stop-color:#5C2D08;stop-opacity:0.312"/>
	<stop  offset="0.2885" style="stop-color:#3F1F06;stop-opacity:0.2846"/>
	<stop  offset="0.3643" style="stop-color:#281304;stop-opacity:0.2543"/>
	<stop  offset="0.4507" style="stop-color:#160B02;stop-opacity:0.2197"/>
	<stop  offset="0.5542" style="stop-color:#090501;stop-opacity:0.1783"/>
	<stop  offset="0.6915" style="stop-color:#020100;stop-opacity:0.1234"/>
	<stop  offset="1" style="stop-color:#000000;stop-opacity:0"/>
</linearGradient>
<rect x="17.736" y="7.244" fill="url(#SVGID_1_)" width="1065" height="267"/>
<g>
	<path fill="#FFFFFF" d="M186.436,209.318V76.733h53.967c5.35,0,10.333,1.154,14.939,3.457s8.558,5.353,11.858,9.151
		c3.299,3.798,5.882,8.094,7.75,12.882c1.868,4.794,2.801,9.68,2.801,14.662c0,5.226-0.872,10.269-2.613,15.124
		c-1.747,4.855-4.202,9.151-7.377,12.882c-3.175,3.737-6.976,6.726-11.393,8.969c-4.421,2.236-9.306,3.36-14.659,3.36H190.17v52.098
		H186.436z M190.17,153.483h51.539c4.98,0,9.494-1.057,13.541-3.172c4.044-2.115,7.437-4.916,10.175-8.404s4.855-7.407,6.35-11.764
		c1.495-4.357,2.242-8.78,2.242-13.258c0-4.733-0.872-9.272-2.616-13.635c-1.744-4.357-4.141-8.215-7.188-11.575
		c-3.053-3.36-6.629-6.07-10.737-8.124c-4.111-2.054-8.467-3.081-13.073-3.081H190.17V153.483z"/>
	<path fill="#FFFFFF" d="M336.384,76.733h3.363l57.701,132.585h-4.108l-20.729-47.432h-69.279l-20.726,47.432h-4.111L336.384,76.733
		z M370.931,158.15l-32.867-76.002l-33.237,76.002H370.931z"/>
	<path fill="#FFFFFF" d="M419.483,209.318V76.733h53.967c5.35,0,10.333,1.154,14.939,3.457s8.558,5.353,11.858,9.151
		c3.299,3.798,5.882,8.094,7.75,12.882c1.868,4.794,2.801,9.68,2.801,14.662c0,5.104-0.811,10.02-2.427,14.747
		c-1.619,4.733-3.922,8.938-6.909,12.608c-2.99,3.67-6.568,6.66-10.737,8.963c-4.174,2.303-8.75,3.64-13.726,4.016l33.614,52.098
		h-4.484l-33.611-52.098h-49.3v52.098H419.483z M423.217,153.483h51.539c4.98,0,9.461-1.057,13.447-3.172
		c3.983-2.115,7.377-4.885,10.178-8.312c2.801-3.421,4.946-7.31,6.441-11.673c1.495-4.357,2.242-8.835,2.242-13.441
		c0-4.733-0.872-9.272-2.616-13.635c-1.744-4.357-4.141-8.215-7.188-11.575c-3.053-3.36-6.629-6.07-10.737-8.124
		c-4.111-2.054-8.467-3.081-13.073-3.081h-50.233V153.483z"/>
	<path fill="#FFFFFF" d="M630.306,195.124c-5.226,4.733-11.114,8.44-17.646,11.114c-6.538,2.68-13.538,4.016-21.012,4.016
		c-9.212,0-17.585-1.932-25.113-5.791c-7.535-3.858-14.036-8.902-19.517-15.124c-5.481-6.228-9.71-13.38-12.699-21.48
		c-2.984-8.088-4.478-16.363-4.478-24.834c0-8.835,1.586-17.299,4.764-25.393c3.172-8.094,7.529-15.252,13.07-21.48
		c5.536-6.222,12.074-11.168,19.608-14.844c7.529-3.67,15.653-5.505,24.366-5.505c9.09,0,17.433,1.957,25.028,5.882
		c7.589,3.919,14.097,9.054,19.511,15.403c5.414,6.35,9.619,13.538,12.608,21.571c2.983,8.027,4.478,16.151,4.478,24.366
		c0,9.71-1.805,18.83-5.414,27.355c-3.615,8.531-8.592,15.969-14.942,22.318l13.447,16.619h-4.667L630.306,195.124z
		 M591.649,206.517c7.219,0,13.884-1.306,19.985-3.919c6.095-2.619,11.575-6.101,16.43-10.457l-14.006-17.554h4.673l11.952,15.124
		c5.973-6.222,10.609-13.41,13.909-21.565s4.946-16.528,4.946-25.119c0-8.215-1.464-16.151-4.387-23.807
		c-2.923-7.656-7-14.443-12.232-20.356c-5.226-5.912-11.363-10.615-18.393-14.097c-7.036-3.488-14.656-5.232-22.877-5.232
		c-8.586,0-16.461,1.841-23.619,5.511c-7.164,3.67-13.295,8.495-18.393,14.468c-5.11,5.979-9.06,12.766-11.861,20.356
		c-2.801,7.595-4.199,15.312-4.199,23.157c0,8.215,1.458,16.151,4.387,23.807c2.923,7.656,6.939,14.443,12.043,20.356
		c5.104,5.918,11.205,10.615,18.302,14.103C575.407,204.773,583.185,206.517,591.649,206.517z"/>
	<path fill="#FFFFFF" d="M732.826,206.517c9.959,0,18.205-1.865,24.743-5.602c6.532-3.737,11.697-8.592,15.501-14.565
		c3.792-5.973,6.471-12.76,8.027-20.356c1.556-7.589,2.333-15.245,2.333-22.968V76.733h3.737v66.292
		c0,8.841-0.905,17.305-2.71,25.399c-1.805,8.094-4.825,15.215-9.054,21.376c-4.235,6.167-9.807,11.114-16.716,14.85
		c-6.909,3.731-15.47,5.602-25.678,5.602c-10.457,0-19.171-1.932-26.14-5.791c-6.976-3.858-12.542-8.963-16.716-15.312
		c-4.168-6.35-7.128-13.538-8.865-21.571c-1.744-8.027-2.619-16.212-2.619-24.554V76.733h3.737v66.292
		c0,7.966,0.778,15.75,2.333,23.345c1.556,7.595,4.266,14.377,8.124,20.35c3.858,5.979,9.023,10.773,15.501,14.383
		C714.834,204.712,722.988,206.517,732.826,206.517z"/>
	<path fill="#FFFFFF" d="M908.923,205.581v3.737h-87.025V76.733h85.342v3.737h-81.605v59.195h71.524v3.737h-71.524v62.179H908.923z"
		/>
	<path fill="#FFFFFF" d="M1024.883,165.247c8.963,1.246,16.12,5.074,21.474,11.484c5.347,6.417,8.027,14.285,8.027,23.625
		c0,5.481-0.966,10.427-2.892,14.844c-1.932,4.417-4.667,8.246-8.215,11.484c-3.548,3.239-7.753,5.724-12.608,7.468
		s-10.147,2.619-15.871,2.619c-9.339,0-17.494-2.151-24.463-6.447c-6.976-4.29-11.764-10.111-14.377-17.457l3.549-1.306
		c1.118,3.233,2.765,6.161,4.946,8.774c2.175,2.613,4.825,4.855,7.936,6.726c3.111,1.865,6.599,3.324,10.457,4.387
		c3.858,1.057,7.966,1.586,12.323,1.586c5.353,0,10.208-0.778,14.571-2.333c4.351-1.562,8.088-3.798,11.199-6.726
		c3.111-2.923,5.511-6.41,7.194-10.457c1.677-4.047,2.522-8.616,2.522-13.72c0-10.087-3.239-18.083-9.716-23.995
		c-6.471-5.912-15.373-8.871-26.699-8.871h-4.108v-3.737h4.296c10.949,0,19.353-2.333,25.204-7c5.851-4.673,8.78-11.235,8.78-19.705
		c0-4.6-0.845-8.805-2.522-12.602c-1.683-3.798-4.016-7.061-7.006-9.801c-2.984-2.74-6.532-4.855-10.64-6.35
		s-8.592-2.242-13.447-2.242c-7.844,0-14.753,1.932-20.726,5.791c-5.979,3.858-10.208,8.963-12.699,15.312l-3.36-1.306
		c1.24-3.488,3.05-6.696,5.414-9.619c2.364-2.923,5.165-5.414,8.404-7.468c3.233-2.06,6.781-3.646,10.646-4.764
		c3.852-1.124,7.966-1.683,12.323-1.683c5.353,0,10.299,0.845,14.844,2.522c4.545,1.683,8.495,4.047,11.861,7.097
		c3.36,3.05,5.973,6.629,7.839,10.737c1.871,4.108,2.801,8.592,2.801,13.447c0,7.966-2.455,14.656-7.377,20.076
		C1039.849,161.048,1033.219,164.25,1024.883,165.247z"/>
</g>
</svg>
