<?xml version="1.0" encoding="utf-8"?>
<!-- Generator: Adobe Illustrator 17.0.0, SVG Export Plug-In . SVG Version: 6.00 Build 0)  -->
<!DOCTYPE svg PUBLIC "-//W3C//DTD SVG 1.1//EN" "http://www.w3.org/Graphics/SVG/1.1/DTD/svg11.dtd">
<svg version="1.1" id="Camada_1" xmlns="http://www.w3.org/2000/svg" xmlns:xlink="http://www.w3.org/1999/xlink" x="0px" y="0px"
	 width="1087.912px" height="281.707px" viewBox="0 0 1087.912 281.707" enable-background="new 0 0 1087.912 281.707"
	 xml:space="preserve">
<g display="none">
	<path id="mexendo_2_" display="inline" d="M584.302,129.753c9.789,1.04,16.9,4.465,22.617,10.514
		c0.035,0.037,2.137,2.347,2.25,2.491c0.012,0.003,0.647,0.782,0.974,1.145c4.43,4.917,11.452,7.122,18.202,5.067
		c9.303-2.831,14.549-12.668,11.717-21.971c-1.24-4.073-3.822-7.368-7.114-9.548c-3.457-2.567-8.261-3.766-14.153-3.163
		C606.395,115.557,595.261,120.627,584.302,129.753z"/>
	<path id="mexendo_3_" display="inline" d="M577.865,120.066c2.101-9.617,6.282-16.312,12.919-21.335
		c0.04-0.03,2.567-1.868,2.722-1.965c0.005-0.012,0.848-0.558,1.245-0.844c5.37-3.867,8.329-10.607,7.023-17.54
		c-1.8-9.556-11.005-15.844-20.562-14.045c-4.183,0.788-7.741,2.995-10.267,6.03c-2.929,3.156-4.645,7.801-4.689,13.723
		C566.164,96.555,569.989,108.177,577.865,120.066z"/>
	<path id="mexendo_4_" display="inline" d="M570.658,130.85c-9.789-1.04-16.9-4.465-22.617-10.514
		c-0.035-0.037-2.137-2.347-2.25-2.491c-0.012-0.003-0.647-0.782-0.974-1.145c-4.43-4.917-11.452-7.122-18.202-5.067
		c-9.303,2.831-14.549,12.668-11.718,21.971c1.24,4.073,3.822,7.368,7.114,9.548c3.457,2.567,8.261,3.766,14.153,3.163
		C548.565,145.046,559.699,139.976,570.658,130.85z"/>
</g>
<path id="mexendo_1_" display="none" d="M798.752,169.04c1.29-5.902,3.855-10.011,7.928-13.094c0.025-0.019,1.575-1.146,1.67-1.206
	c0.003-0.007,0.521-0.342,0.764-0.518c3.296-2.373,5.111-6.509,4.31-10.765c-1.104-5.865-6.754-9.724-12.619-8.619
	c-2.568,0.484-4.751,1.838-6.301,3.701c-1.798,1.937-2.85,4.788-2.877,8.422C791.571,154.611,793.919,161.743,798.752,169.04z"/>
<g display="none">
	<path display="inline" d="M893.759,184.578l-6.58-1.106c0,0-0.874-0.147-2.512-0.422c-0.406-0.057-0.874-0.171-1.363-0.205
		c-0.489-0.031-1.022-0.065-1.598-0.101c-0.578-0.027-1.193-0.101-1.861-0.101c-0.672,0.023-1.385,0.048-2.139,0.075
		c-2.997,0.181-6.687,0.677-10.616,2.226c-3.922,1.504-8.134,3.909-11.893,7.505c-3.731,3.603-6.968,8.382-8.936,14.017
		c-0.273,0.694-0.415,1.436-0.632,2.159c-0.174,0.722-0.458,1.477-0.547,2.185c-0.239,1.537-0.596,3.114-0.622,4.648
		c-0.303,3.083,0.009,6.333,0.596,9.52c0.619,3.207,1.815,6.327,3.301,9.334c1.566,2.977,3.596,5.735,5.934,8.245
		c2.393,2.466,5.176,4.563,8.178,6.314c3.033,1.69,6.374,2.887,9.72,3.712c3.513,0.685,6.943,0.983,10.443,0.731
		c3.468-0.327,6.889-1.061,10.114-2.299c3.193-1.3,6.215-2.96,8.908-5.019c2.633-2.119,5.053-4.469,6.983-7.145
		c1.896-2.68,3.555-5.504,4.604-8.505c0.639-1.458,0.966-3.001,1.395-4.492c0.228-0.716,0.285-1.521,0.435-2.27
		c0.11-0.761,0.296-1.516,0.34-2.268c0.591-6.009-0.349-11.824-2.257-16.751c-1.935-4.938-4.804-8.976-7.798-12.06
		c-2.982-3.128-6.198-5.181-8.911-6.643c-0.691-0.35-1.345-0.681-1.96-0.992C894.242,184.755,893.996,184.671,893.759,184.578z
		 M880.785,180.752l6.555,1.734c0,0,0.857,0.227,2.463,0.651c0.398,0.117,0.858,0.202,1.337,0.379c0.478,0.18,1,0.376,1.564,0.588
		c0.56,0.221,1.179,0.42,1.808,0.704c0.619,0.307,1.278,0.633,1.973,0.977c2.732,1.441,5.978,3.473,9.003,6.59
		c3.036,3.072,5.961,7.111,7.957,12.074c1.967,4.961,2.975,10.799,2.425,16.933c-0.04,0.769-0.218,1.514-0.321,2.279
		c-0.146,0.764-0.188,1.524-0.421,2.305c-0.42,1.515-0.74,3.084-1.374,4.57c-1.04,3.056-2.698,5.941-4.605,8.686
		c-1.94,2.741-4.382,5.158-7.051,7.342c-2.728,2.124-5.799,3.848-9.053,5.206c-3.287,1.296-6.783,2.08-10.338,2.446
		c-3.553,0.298-7.229,0-10.677-0.647c-3.546-0.833-6.924-2.023-10.089-3.742c-3.111-1.776-6.003-3.916-8.498-6.443
		c-2.44-2.57-4.565-5.406-6.213-8.476c-1.57-3.099-2.837-6.327-3.51-9.652c-0.64-3.323-0.995-6.643-0.704-9.938
		c0.028-1.674,0.366-3.198,0.593-4.749c0.108-0.846,0.379-1.558,0.559-2.336c0.219-0.756,0.364-1.53,0.641-2.257
		c2-5.899,5.342-10.932,9.219-14.74c3.905-3.803,8.302-6.368,12.412-7.985c4.118-1.663,8-2.225,11.16-2.443
		c0.795-0.034,1.548-0.067,2.256-0.097C880.172,180.707,880.482,180.734,880.785,180.752z"/>
</g>
<linearGradient id="SVGID_1_" gradientUnits="userSpaceOnUse" x1="15.7363" y1="142.2439" x2="1069.7362" y2="142.2439">
	<stop  offset="0" style="stop-color:#D9E021;stop-opacity:0.4"/>
	<stop  offset="0.0152" style="stop-color:#CCD21F;stop-opacity:0.3939"/>
	<stop  offset="0.0698" style="stop-color:#A1A719;stop-opacity:0.3721"/>
	<stop  offset="0.1302" style="stop-color:#7B7F13;stop-opacity:0.3479"/>
	<stop  offset="0.195" style="stop-color:#595C0E;stop-opacity:0.322"/>
	<stop  offset="0.2656" style="stop-color:#3D3F09;stop-opacity:0.2938"/>
	<stop  offset="0.3439" style="stop-color:#272806;stop-opacity:0.2624"/>
	<stop  offset="0.4331" style="stop-color:#151603;stop-opacity:0.2268"/>
	<stop  offset="0.5398" style="stop-color:#090901;stop-opacity:0.1841"/>
	<stop  offset="0.6816" style="stop-color:#020200;stop-opacity:0.1274"/>
	<stop  offset="1" style="stop-color:#000000;stop-opacity:0"/>
</linearGradient>
<rect x="15.736" y="9.244" fill="url(#SVGID_1_)" width="1054" height="266"/>
<line fill="#D3DE16" stroke="#D9E021" stroke-width="5" stroke-miterlimit="10" x1="18.236" y1="9.244" x2="18.236" y2="275.244"/>
<g>
	<path fill="#FFFFFF" d="M188.116,204.958V73.388h53.554c5.309,0,10.254,1.146,14.824,3.431c4.571,2.285,8.493,5.312,11.767,9.081
		c3.274,3.769,5.837,8.032,7.691,12.783c1.854,4.758,2.78,9.606,2.78,14.55c0,5.186-0.865,10.19-2.593,15.008
		c-1.734,4.818-4.17,9.081-7.32,12.783c-3.151,3.708-6.922,6.675-11.306,8.9c-4.387,2.219-9.235,3.335-14.547,3.335h-51.145v51.7
		H188.116z M191.821,149.55h51.145c4.941,0,9.422-1.049,13.437-3.148c4.013-2.098,7.381-4.878,10.097-8.339s4.818-7.35,6.301-11.674
		s2.225-8.713,2.225-13.157c0-4.697-0.865-9.202-2.596-13.531c-1.731-4.323-4.109-8.152-7.133-11.487
		c-3.03-3.334-6.579-6.024-10.655-8.062c-4.079-2.038-8.403-3.057-12.973-3.057h-49.849V149.55z"/>
	<path fill="#FFFFFF" d="M336.917,73.388h3.337l57.259,131.571h-4.076l-20.571-47.069h-68.749l-20.568,47.069h-4.079L336.917,73.388
		z M371.2,154.181L338.584,78.76l-32.983,75.421H371.2z"/>
	<path fill="#FFFFFF" d="M419.381,204.958V73.388h53.554c5.309,0,10.254,1.146,14.824,3.431c4.571,2.285,8.493,5.312,11.767,9.081
		c3.274,3.769,5.837,8.032,7.691,12.783c1.854,4.758,2.78,9.606,2.78,14.55c0,5.065-0.805,9.943-2.409,14.634
		c-1.607,4.697-3.892,8.87-6.856,12.512c-2.967,3.642-6.518,6.609-10.655,8.894c-4.143,2.285-8.683,3.612-13.621,3.986l33.357,51.7
		h-4.45l-33.354-51.7h-48.923v51.7H419.381z M423.086,149.55h51.145c4.941,0,9.388-1.049,13.344-3.148
		c3.953-2.098,7.32-4.848,10.1-8.249c2.78-3.395,4.908-7.254,6.392-11.583c1.483-4.323,2.225-8.767,2.225-13.338
		c0-4.697-0.865-9.202-2.596-13.531c-1.731-4.323-4.109-8.152-7.133-11.487c-3.03-3.334-6.579-6.024-10.655-8.062
		c-4.079-2.038-8.403-3.057-12.973-3.057h-49.849V149.55z"/>
	<path fill="#FFFFFF" d="M628.592,190.873c-5.186,4.697-11.029,8.375-17.511,11.029c-6.488,2.659-13.434,3.986-20.851,3.986
		c-9.141,0-17.45-1.917-24.921-5.746c-7.477-3.829-13.929-8.834-19.368-15.008c-5.439-6.181-9.636-13.278-12.602-21.315
		c-2.961-8.026-4.444-16.238-4.444-24.644c0-8.767,1.574-17.167,4.727-25.199c3.148-8.032,7.471-15.135,12.97-21.315
		c5.493-6.175,11.981-11.083,19.458-14.731c7.471-3.642,15.533-5.463,24.18-5.463c9.021,0,17.3,1.942,24.837,5.837
		c7.531,3.889,13.989,8.984,19.362,15.286c5.373,6.301,9.545,13.434,12.512,21.406c2.961,7.965,4.444,16.027,4.444,24.18
		c0,9.636-1.791,18.686-5.373,27.146c-3.588,8.466-8.526,15.846-14.827,22.148l13.344,16.492h-4.631L628.592,190.873z
		 M590.23,202.179c7.163,0,13.778-1.296,19.832-3.889c6.048-2.599,11.487-6.054,16.305-10.377l-13.899-17.42h4.637l11.861,15.008
		c5.927-6.175,10.528-13.308,13.802-21.4s4.908-16.401,4.908-24.927c0-8.152-1.453-16.027-4.354-23.625
		c-2.9-7.598-6.946-14.333-12.138-20.2c-5.186-5.867-11.276-10.534-18.252-13.989c-6.983-3.461-14.544-5.192-22.702-5.192
		c-8.52,0-16.335,1.827-23.438,5.469c-7.109,3.642-13.193,8.43-18.252,14.357c-5.071,5.933-8.99,12.669-11.77,20.2
		c-2.78,7.537-4.167,15.195-4.167,22.98c0,8.152,1.447,16.027,4.354,23.625c2.9,7.598,6.886,14.333,11.951,20.2
		c5.065,5.873,11.119,10.534,18.162,13.995C574.113,200.448,581.831,202.179,590.23,202.179z"/>
	<path fill="#FFFFFF" d="M730.327,202.179c9.883,0,18.065-1.851,24.553-5.559c6.482-3.708,11.607-8.526,15.382-14.454
		c3.763-5.927,6.422-12.663,7.965-20.2c1.544-7.531,2.315-15.129,2.315-22.793V73.388h3.708v65.785
		c0,8.773-0.898,17.173-2.689,25.205c-1.791,8.032-4.788,15.099-8.984,21.213c-4.203,6.12-9.732,11.029-16.588,14.737
		c-6.856,3.702-15.352,5.559-25.482,5.559c-10.377,0-19.024-1.917-25.94-5.746c-6.922-3.829-12.446-8.894-16.588-15.195
		c-4.136-6.301-7.073-13.434-8.798-21.406c-1.731-7.965-2.599-16.088-2.599-24.367V73.388h3.708v65.785
		c0,7.905,0.772,15.629,2.315,23.167c1.544,7.537,4.233,14.267,8.062,20.194c3.829,5.933,8.954,10.691,15.382,14.273
		C712.473,200.388,720.565,202.179,730.327,202.179z"/>
	<path fill="#FFFFFF" d="M905.078,201.25v3.708h-86.359V73.388h84.689v3.708h-80.981v58.743h70.977v3.708h-70.977v61.703H905.078z"
		/>
	<path fill="#FFFFFF" d="M1029.226,201.25v3.708h-53.551v-3.708h26.314v-95.989c-0.989,1.483-2.689,3.123-5.095,4.914
		c-2.412,1.791-5.071,3.515-7.971,5.186c-2.9,1.67-5.927,3.057-9.081,4.167c-3.148,1.116-5.957,1.67-8.43,1.67v-4.45
		c3.334,0,6.79-0.892,10.377-2.683c3.582-1.791,6.856-3.738,9.823-5.837c2.961-2.098,5.403-4.076,7.32-5.933
		c1.911-1.851,2.931-2.9,3.057-3.148h3.702V201.25H1029.226z"/>
</g>
</svg>
